<svg xmlns="http://www.w3.org/2000/svg" xmlns:xlink="http://www.w3.org/1999/xlink" width="890" height="277.1"><rect width="890" height="277.1" rx="5" ry="5" class="a"></rect><svg y="0%" x="0%"><circle cx="20" cy="20" r="6" class="b"></circle><circle cx="40" cy="20" r="6" class="c"></circle><circle cx="60" cy="20" r="6" class="d"></circle></svg><svg height="217.10000000000002" viewBox="0 0 85 21.71" width="850" x="15" xmlns="http://www.w3.org/2000/svg" xmlns:xlink="http://www.w3.org/1999/xlink" y="50"><style>.a{fill:rgb(0,0,0)}.b{fill:#ff5f58}.c{fill:#ffbd2e}.d{fill:#18c132}.e{font-family:'Fira Code',Monaco,Consolas,Menlo,'Bitstream Vera Sans Mono','Powerline Symbols',monospace}.f{fill:rgb(255,255,255);white-space:pre}.g{fill:transparent}</style><g font-family="&#x27;Fira Code&#x27;,Monaco,Consolas,Menlo,&#x27;Bitstream Vera Sans Mono&#x27;,&#x27;Powerline Symbols&#x27;,monospace" font-size="1.67" class="e"><defs><symbol id="1"><text font-size="1.67" x="0" y="1.67" class="f">&gt;</text><text font-size="1.67" x="2.004" y="1.67" class="f">chk</text><text font-size="1.67" x="6.012" y="1.67" class="f">&lt;-</text><text font-size="1.67" x="9.017999999999999" y="1.67" class="f">checkglobals::checkglobals(</text></symbol><symbol id="2"><text font-size="1.67" x="0" y="1.67" class="f">+</text><text font-size="1.67" x="4.008" y="1.67" class="f">pkg</text><text font-size="1.67" x="8.016" y="1.67" class="f">=</text><text font-size="1.67" x="10.02" y="1.67" class="f">&quot;https://cran.r-project.org/src/contrib/testthat_3.2.3.tar.gz&quot;</text></symbol><symbol id="3"><text font-size="1.67" x="0" y="1.67" class="f">+</text><text font-size="1.67" x="2.004" y="1.67" class="f">)</text></symbol><symbol id="4"><text font-size="1.67" x="0" y="1.67" class="f">trying</text><text font-size="1.67" x="7.013999999999999" y="1.67" class="f">URL</text><text font-size="1.67" x="11.021999999999998" y="1.67" class="f">&#x27;https://cran.r-project.org/src/contrib/testthat_3.2.3.tar.gz&#x27;</text></symbol><symbol id="5"><text font-size="1.67" x="0" y="1.67" class="f">Content</text><text font-size="1.67" x="8.016" y="1.67" class="f">type</text><text font-size="1.67" x="13.026" y="1.67" class="f">&#x27;application/x-gzip&#x27;</text><text font-size="1.67" x="34.068" y="1.67" class="f">length</text><text font-size="1.67" x="41.082" y="1.67" class="f">738940</text><text font-size="1.67" x="48.096" y="1.67" class="f">bytes</text><text font-size="1.67" x="54.108" y="1.67" class="f">(721</text><text font-size="1.67" x="59.117999999999995" y="1.67" class="f">KB)</text></symbol><symbol id="6"><text font-size="1.67" x="0" y="1.67" class="f">==================================================</text></symbol><symbol id="7"><text font-size="1.67" x="0" y="1.67" class="f">downloaded</text><text font-size="1.67" x="11.021999999999998" y="1.67" class="f">721</text><text font-size="1.67" x="15.029999999999998" y="1.67" class="f">KB</text></symbol><symbol id="8"><text font-size="1.67" x="0" y="1.67" class="f">&gt;</text><text font-size="1.67" x="2.004" y="1.67" class="f">chk</text></symbol><symbol id="a"><rect height="10" width="85" x="0" y="0" class="g"></rect></symbol></defs><rect height="21.71" width="85" class="a"></rect><svg x="0" y="0" width="170"><svg x="0"><use xlink:href="#a"></use><use xlink:href="#1" y="0"></use><use xlink:href="#2" y="2.171"></use><use xlink:href="#3" y="4.342"></use><use xlink:href="#4" y="6.513"></use><use xlink:href="#5" y="8.684"></use><use xlink:href="#6" y="10.855"></use><use xlink:href="#7" y="13.026"></use><use xlink:href="#8" y="17.368"></use></svg><svg x="85"><use xlink:href="#a"></use><use xlink:href="#1" y="0"></use><use xlink:href="#2" y="2.171"></use><use xlink:href="#3" y="4.342"></use><use xlink:href="#4" y="6.513"></use><use xlink:href="#5" y="8.684"></use><use xlink:href="#6" y="10.855"></use><use xlink:href="#7" y="13.026"></use><use xlink:href="#8" y="17.368"></use></svg></svg></g></svg></svg>